<svg xmlns="http://www.w3.org/2000/svg" xmlns:xlink="http://www.w3.org/1999/xlink" version="1.1" x="0px" y="0px" viewBox="0 0 50 50" enable-background="new 0 0 50 50" xml:space="preserve"><g><path d="M35.6,28.4C35.6,34.3,30.9,39,25,39c-5.9,0-10.6-4.8-10.6-10.6c0-1.2,0.2-2.4,0.6-3.5H1v18.8c0,1.3,1,2.3,2.3,2.3h43.3   c1.3,0,2.3-1,2.3-2.3V24.9H35C35.4,26,35.6,27.2,35.6,28.4z"/><path d="M46.7,11.5h-2.5V7.8h-5v3.7H37l-3.2-7.6H16.3L13,11.5h-2.3V7.8h-5v3.7H3.3c-1.3,0-2.3,1-2.3,2.3v9.2h14.9   c1.8-3.1,5.2-5.1,9.1-5.1c3.8,0,7.2,2,9.1,5.1H49v-9.2C49,12.5,47.9,11.5,46.7,11.5z M31.7,10.4H18.3V6.5h13.3V10.4z M45.2,17.6   c0,0.8-0.6,1.4-1.4,1.4h-4.6c-0.8,0-1.4-0.6-1.4-1.4v-1c0-0.8,0.6-1.4,1.4-1.4h4.6c0.8,0,1.4,0.6,1.4,1.4V17.6z"/><path d="M25,36c4.2,0,7.6-3.4,7.6-7.6c0-4.1-3.4-7.6-7.6-7.6c-0.8,0-1.5,0.1-2.2,0.3c1.1,0.9,1.6,2.4,1,3.8c-0.5,1.1-1.6,2-3,2   c-1.2,0-2.2-0.6-2.8-1.6c-0.4,0.9-0.7,2-0.7,3.1C17.4,32.6,20.8,36,25,36z M21.5,28.6c0.7,0,1.2,0.5,1.2,1.2c0,0.7-0.5,1.2-1.2,1.2   c-0.7,0-1.2-0.5-1.2-1.2C20.3,29.2,20.8,28.6,21.5,28.6z"/></g></svg>
