<?xml version="1.0" encoding="UTF-8" standalone="no"?>
<!DOCTYPE svg PUBLIC "-//W3C//DTD SVG 1.1//EN" "http://www.w3.org/Graphics/SVG/1.1/DTD/svg11.dtd">
<svg width="100%" height="100%" viewBox="0 0 512 512" version="1.1" xmlns="http://www.w3.org/2000/svg" xmlns:xlink="http://www.w3.org/1999/xlink" xml:space="preserve" xmlns:serif="http://www.serif.com/" style="fill-rule:evenodd;clip-rule:evenodd;stroke-linejoin:round;stroke-miterlimit:2;">
    <g>
        <path d="M411.1,256C411.1,232.1 425.9,213.2 448,200.2C444,186.9 438.7,174 432.2,162C407.3,168.5 387.2,158.8 370.2,141.8C353.3,124.9 348.1,104.7 354.6,79.8C342.6,73.3 329.8,68 316.4,64C303.4,86.2 280,100.9 256,100.9C232.1,100.9 208.6,86.2 195.6,64C182.2,68 169.4,73.3 157.4,79.8C163.9,104.7 158.7,124.8 141.8,141.8C124.9,158.7 104.7,168.5 79.9,162C73.3,174 68,186.8 64,200.2C86.2,213.2 101,232.1 101,256C101,279.9 86.2,303.4 64,316.4C68,329.8 73.3,342.6 79.8,354.6C104.7,348.1 124.8,353.3 141.7,370.2C158.7,387.1 163.8,407.3 157.3,432.2C169.4,438.7 182.1,444 195.5,448C208.5,425.8 232,411.1 255.9,411.1C279.8,411.1 303.3,425.8 316.3,448C329.7,444 342.5,438.7 354.5,432.2C348,407.3 353.2,387.2 370.1,370.2C387,353.3 407.2,343.5 432.1,350C438.6,337.9 443.9,325.1 447.9,311.8C425.8,298.8 411.1,279.9 411.1,256ZM256,354.3C201.8,354.3 157.7,310.3 157.7,256C157.7,201.7 201.7,157.7 256,157.7C310.3,157.7 354.3,201.7 354.3,256C354.3,310.3 310.3,354.3 256,354.3Z" style="fill:rgb(77,77,77);fill-rule:nonzero;stroke:rgb(238,238,238);stroke-width:8px;"/>
    </g>
</svg>
